<svg width="40" height="31" viewBox="0 0 40 31" fill="none" xmlns="http://www.w3.org/2000/svg">
<path fill-rule="evenodd" clip-rule="evenodd" d="M18.703 0.383999C18.104 0.500999 16.863 0.833999 15.944 1.122C15.026 1.412 14.176 1.696 14.056 1.753C13.936 1.811 13.577 1.956 13.258 2.075C12.938 2.195 11.86 2.637 10.862 3.058C9.84304 3.48801 8.83156 3.93541 7.82795 4.4L6.60795 4.977L6.95595 5.244C7.14795 5.392 7.36595 5.514 7.44095 5.515C7.51595 5.517 8.03895 5.739 8.60295 6.008C9.16595 6.278 9.84395 6.588 10.109 6.698C10.374 6.808 11.156 7.164 11.847 7.49C13.066 8.064 13.117 8.075 13.544 7.853C13.786 7.727 14.006 7.575 14.032 7.515C14.059 7.455 14.157 7.405 14.25 7.405C14.343 7.403 14.81 7.205 15.286 6.963C15.762 6.721 16.743 6.32 17.464 6.072C18.454 5.731 19.114 5.604 20.162 5.554C21.28 5.5 21.773 5.548 22.704 5.8C23.339 5.973 23.989 6.166 24.148 6.23C24.308 6.294 24.864 6.546 25.383 6.791C25.902 7.036 26.555 7.335 26.835 7.456C27.115 7.576 27.865 7.914 28.505 8.205C29.144 8.495 30.107 8.941 30.645 9.195C31.48 9.589 31.623 9.712 31.625 10.033C31.626 10.315 31.508 10.468 31.155 10.641C30.895 10.769 30.389 11.001 30.029 11.159C29.67 11.317 29.017 11.609 28.577 11.81C28.138 12.01 27.354 12.35 26.835 12.567C26.315 12.783 25.237 13.177 24.439 13.441C23.5793 13.723 22.707 13.9649 21.825 14.166C20.841 14.372 20.519 14.382 19.72 14.234C19.0828 14.108 18.4527 13.9491 17.832 13.758C17.312 13.592 16.822 13.41 16.742 13.353C16.5822 13.2621 16.4124 13.1903 16.236 13.139C16.036 13.078 15.449 12.834 14.929 12.599C14.409 12.363 13.586 11.979 13.101 11.749C12.616 11.516 11.995 11.329 11.721 11.329C11.448 11.332 10.951 11.457 10.617 11.609C10.262 11.77 9.82295 12.142 9.56395 12.499C9.16595 13.049 9.11895 13.222 9.11895 14.159C9.11895 15.083 9.16895 15.271 9.54295 15.789C9.87295 16.246 10.283 16.526 11.395 17.059C12.18 17.436 12.953 17.8 13.113 17.868C13.906 18.1929 14.7048 18.5036 15.509 18.8C15.788 18.901 16.376 19.087 16.815 19.212C17.255 19.337 18.01 19.542 18.495 19.667C18.993 19.795 19.976 19.894 20.759 19.894C21.658 19.894 22.518 19.796 23.218 19.614C24.0186 19.3969 24.8132 19.1582 25.601 18.898C26.319 18.658 27.267 18.322 27.706 18.151C28.146 17.98 28.699 17.768 28.936 17.68C29.175 17.592 29.534 17.433 29.736 17.328C29.937 17.223 30.146 17.137 30.201 17.136C30.255 17.136 30.745 16.933 31.29 16.686L32.9339 15.942C33.2929 15.78 34.339 15.285 35.257 14.842C36.175 14.4 37.2949 13.757 37.7449 13.413C38.2692 12.9901 38.7331 12.4975 39.124 11.949C39.66 11.148 39.686 11.055 39.685 9.947C39.685 8.939 39.635 8.709 39.305 8.205C39.095 7.885 38.6679 7.395 38.3549 7.115C38.0429 6.836 37.58 6.46 37.327 6.281C37.073 6.101 36.832 5.954 36.791 5.954C36.749 5.954 36.208 5.719 35.587 5.432C34.967 5.145 33.921 4.654 33.263 4.342C32.606 4.031 32.03 3.776 31.983 3.776C31.937 3.776 31.527 3.604 31.073 3.395C30.619 3.185 29.724 2.788 29.085 2.512C28.5097 2.26165 27.9289 2.02426 27.343 1.8C26.8373 1.62194 26.329 1.45192 25.818 1.29C25.3845 1.15429 24.9544 1.00825 24.528 0.851999C24.337 0.775999 23.532 0.585999 22.738 0.429999C21.945 0.273999 20.958 0.150999 20.544 0.157999C20.13 0.164999 19.302 0.266999 18.704 0.383999H18.703ZM1.85995 7.27C1.60363 7.39152 1.36646 7.54986 1.15595 7.74C0.968952 7.915 0.677952 8.32 0.508952 8.64C0.221952 9.185 0.205952 9.408 0.241952 12.335C0.263952 14.048 0.307952 15.494 0.341952 15.547C0.374952 15.6 0.876952 15.875 1.45695 16.157C2.03795 16.439 3.03595 16.91 3.67495 17.202C4.31395 17.495 5.01595 17.832 5.23495 17.951L5.63495 18.167V15.05C5.63495 12.357 5.66995 11.866 5.88895 11.457C6.02895 11.196 6.33895 10.796 6.57895 10.568C6.81895 10.341 7.14495 10.126 7.30495 10.091C7.46495 10.056 7.78695 10.009 8.01995 9.987C8.25295 9.965 8.46395 9.882 8.48795 9.802C8.51195 9.722 8.28795 9.548 7.99095 9.415L6.72395 8.851C6.32495 8.673 5.37795 8.236 4.61895 7.879C3.85995 7.523 3.01095 7.206 2.73095 7.175C2.45095 7.145 2.05895 7.188 1.85995 7.271V7.27ZM9.69995 23.086V26.133L10.063 26.223C10.263 26.273 10.426 26.373 10.426 26.444C10.426 26.515 10.496 26.574 10.583 26.574C10.669 26.574 11.208 26.794 11.781 27.064C12.353 27.334 13.184 27.722 13.626 27.925C14.068 28.129 14.885 28.464 15.441 28.67C15.997 28.876 16.583 29.1 16.743 29.166C17.0778 29.2933 17.4167 29.4101 17.759 29.516C18.159 29.642 18.979 29.822 19.583 29.917C20.411 30.047 20.946 30.049 21.761 29.927C22.355 29.837 23.201 29.657 23.641 29.527C24.6543 29.2239 25.6593 28.8938 26.655 28.537C26.995 28.416 27.388 28.257 27.526 28.183C27.666 28.11 28.366 27.808 29.086 27.513C29.804 27.217 30.736 26.815 31.155 26.619L31.917 26.262V23.296C31.917 20.536 31.899 20.33 31.656 20.33C31.512 20.33 31.332 20.389 31.256 20.46C31.181 20.532 30.465 20.862 29.666 21.194C29.0826 21.4337 28.5019 21.6797 27.924 21.932C27.764 22.006 27.045 22.286 26.327 22.553C25.607 22.82 24.627 23.153 24.148 23.293C23.669 23.433 23.081 23.612 22.842 23.69C22.602 23.768 21.851 23.867 21.172 23.91C20.439 23.956 19.672 23.92 19.284 23.82C18.924 23.727 18.336 23.583 17.977 23.5C17.617 23.417 17.262 23.29 17.186 23.219C17.0822 23.1373 16.9549 23.0914 16.823 23.088C16.699 23.088 16.41 22.989 16.182 22.87C15.952 22.75 15.692 22.65 15.601 22.648C15.511 22.645 15.174 22.517 14.855 22.363C14.535 22.208 14.23 22.08 14.175 22.077C14.121 22.074 13.631 21.871 13.086 21.624C12.3698 21.2962 11.6588 20.9575 10.953 20.608C10.325 20.295 9.78595 20.039 9.75495 20.039C9.72495 20.039 9.69995 21.41 9.69995 23.086V23.086Z" fill="#0C8BFD"/>
<path d="M13.3689 7.927L15.2569 6.983L13.0779 7.346L13.3679 7.926L13.3689 7.927Z" fill="#0C8BFD"/>
<path fill-rule="evenodd" clip-rule="evenodd" d="M1.85898 7.27099C1.60266 7.39251 1.36548 7.55085 1.15498 7.74099C0.967976 7.91599 0.676976 8.32099 0.507976 8.64099C0.220976 9.18599 0.204976 9.40899 0.240976 12.336C0.262976 14.049 0.306976 15.495 0.340976 15.548C0.373976 15.601 0.875976 15.876 1.45598 16.158C2.03698 16.44 3.03498 16.911 3.67398 17.203C4.31298 17.496 5.01498 17.833 5.23398 17.952L5.63398 18.168V15.05C5.63398 12.357 5.66898 11.866 5.88798 11.457C6.02798 11.196 6.33798 10.796 6.57798 10.568C6.81798 10.341 7.14398 10.126 7.30398 10.091C7.54046 10.0446 7.77908 10.0099 8.01898 9.98699C8.25198 9.96499 8.46298 9.88199 8.48698 9.80199C8.51098 9.72199 8.28698 9.54799 7.98998 9.41499L6.72298 8.85099C6.32398 8.67299 5.37698 8.23599 4.61798 7.87899C3.85898 7.52299 3.00998 7.20599 2.72998 7.17499C2.44998 7.14499 2.05798 7.18799 1.85898 7.27099V7.27099Z" fill="#1A2D6B"/>
</svg>
